<?xml version="1.0" encoding="UTF-8"?>
<svg xmlns="http://www.w3.org/2000/svg" id="Layer_1" data-name="Layer 1" viewBox="0 0 24 24">
  <path d="m17.5,11c-3.584,0-6.5,2.916-6.5,6.5s2.916,6.5,6.5,6.5,6.5-2.916,6.5-6.5-2.916-6.5-6.5-6.5Zm0,12c-3.032,0-5.5-2.468-5.5-5.5s2.468-5.5,5.5-5.5,5.5,2.468,5.5,5.5-2.468,5.5-5.5,5.5Zm3.5-5.5c0,.276-.224.5-.5.5h-2.5v2.5c0,.276-.224.5-.5.5s-.5-.224-.5-.5v-2.5h-2.5c-.276,0-.5-.224-.5-.5s.224-.5.5-.5h2.5v-2.5c0-.276.224-.5.5-.5s.5.224.5.5v2.5h2.5c.276,0,.5.224.5.5Zm-10.5,5.5H3.5c-1.379,0-2.5-1.121-2.5-2.5s1.121-2.5,2.5-2.5h5c.276,0,.5-.224.5-.5s-.224-.5-.5-.5h-3.5V1h10.5c1.93,0,3.5,1.57,3.5,3.5v4c0,.276.224.5.5.5s.5-.224.5-.5v-4c0-2.481-2.019-4.5-4.5-4.5H4.5C2.019,0,0,2.019,0,4.5v16c0,1.93,1.57,3.5,3.5,3.5h7c.276,0,.5-.224.5-.5s-.224-.5-.5-.5ZM1,4.5c0-1.758,1.308-3.204,3-3.449v15.949h-.5c-.98,0-1.864.407-2.5,1.058V4.5Z"/>
</svg>
