<?xml version="1.0" encoding="UTF-8"?>
<svg xmlns="http://www.w3.org/2000/svg" id="Layer_1" data-name="Layer 1" viewBox="0 0 24 24">
  <path d="M14,8H4v-1H14v1Zm0,2H4v1H14v-1Zm-10,7h6v-1H4v1Zm16,1c.036,2.594-4.036,2.594-4,0-.036-2.594,4.036-2.594,4,0Zm-1,0c.018-1.297-2.018-1.297-2,0-.018,1.297,2.018,1.297,2,0Zm3.406,.851l1.527,.896-1.521,2.587-1.516-.892c-.408,.34-.881,.606-1.396,.786v1.771h-3v-1.771c-.515-.18-.988-.446-1.396-.786l-1.516,.892-1.521-2.587,1.527-.896c-.126-.6-.126-1.101,0-1.701l-1.527-.896,1.521-2.587,1.516,.892c.408-.34,.881-.606,1.396-.786v-1.771h3v1.771c.515,.18,.988,.446,1.396,.786l1.516-.892,1.521,2.587-1.527,.896c.126,.6,.126,1.101,0,1.701Zm-1.163,.477c.328-.92,.328-1.735,0-2.654l1.32-.775-.507-.862-1.306,.768c-.575-.664-1.369-1.104-2.251-1.274v-1.528h-1v1.528c-.882,.17-1.676,.611-2.251,1.274l-1.306-.768-.507,.862,1.32,.775c-.328,.92-.328,1.735,0,2.654l-1.32,.775,.507,.862,1.306-.768c.575,.664,1.369,1.104,2.251,1.274v1.528h1v-1.528c.882-.17,1.676-.611,2.251-1.274l1.306,.768,.507-.862-1.32-.775Zm-9.483-6.327H4v1h7.079c.203-.351,.429-.686,.681-1ZM2.5,23c-.827,0-1.5-.673-1.5-1.5V3H6v-.5c0-.827,.673-1.5,1.5-1.5h3c.827,0,1.5,.673,1.5,1.5v.5h5v7h1V2h-5.05c-.232-1.14-1.242-2-2.45-2h-3c-1.208,0-2.217,.86-2.45,2H0V21.5c0,1.379,1.122,2.5,2.5,2.5H12.721c-.348-.306-.67-.639-.96-1H2.5Z"/>
</svg>
