<?xml version="1.0" encoding="UTF-8"?>
<svg xmlns="http://www.w3.org/2000/svg" id="Layer_1" data-name="Layer 1" viewBox="0 0 24 24" width="512" height="512"><path d="M15,4.43c0,.2,.12,.39,.31,.47l2.66,1.12,1.07,2.66c.08,.19,.26,.31,.46,.31s.39-.12,.46-.31l1.06-2.66,2.66-1.06c.19-.08,.31-.26,.31-.46s-.12-.39-.31-.46l-2.66-1.06-1.06-2.66c-.15-.38-.78-.38-.93,0l-1.06,2.65-2.65,1c-.19,.07-.32,.25-.32,.46Zm3.53-.6c.13-.05,.23-.15,.29-.28l.68-1.7,.68,1.7c.05,.13,.15,.23,.28,.28l1.7,.68-1.7,.68c-.13,.05-.23,.15-.28,.28l-.68,1.7-.68-1.7c-.05-.12-.15-.22-.27-.28l-1.71-.72,1.69-.64Zm-4.02,5.66l-.53-2.11c-.06-.22-.26-.38-.48-.38s-.43,.16-.48,.38l-.53,2.1-2.1,.48c-.22,.05-.38,.25-.39,.48,0,.23,.15,.43,.37,.49l2.12,.57,.53,2.11c.06,.22,.26,.38,.48,.38s.43-.16,.48-.38l.53-2.11,2.11-.53c.22-.06,.38-.26,.38-.48s-.16-.43-.38-.48l-2.11-.53Zm-.53,1.13c-.18,.04-.32,.18-.36,.36l-.12,.46-.12-.46c-.04-.18-.18-.31-.35-.36l-.47-.13,.41-.09c.18-.04,.38-.23,.42-.42l.1-.42,.12,.46c.04,.18,.18,.32,.36,.36l.46,.12-.46,.12Zm9.52-2.62c-.28,0-.5,.22-.5,.5v11c0,.09,0,.19-.01,.28l-2.9-2.9c-1.15-1.15-3.02-1.15-4.17,0l-.58,.58c-.74,.74-1.94,.74-2.68,0l-5.58-5.58c-1.15-1.15-3.02-1.15-4.17,0l-1.92,1.92V4.5c0-1.93,1.57-3.5,3.5-3.5H15.5c.28,0,.5-.22,.5-.5s-.22-.5-.5-.5H4.5C2.02,0,0,2.02,0,4.5v15c0,2.48,2.02,4.5,4.5,4.5h15c2.48,0,4.5-2.02,4.5-4.5V8.5c0-.28-.22-.5-.5-.5Zm-4,15H4.5c-1.93,0-3.5-1.57-3.5-3.5v-4.29l2.62-2.62c.76-.76,2-.76,2.75,0l5.58,5.58c1.13,1.13,2.96,1.13,4.09,0l.58-.58c.76-.76,2-.76,2.75,0l3.33,3.33c-.54,1.23-1.77,2.09-3.2,2.09ZM7,5c.55,0,1,.45,1,1s-.45,1-1,1-1-.45-1-1,.45-1,1-1Z"/></svg>
