<?xml version="1.0" ?>
<!-- Uploaded to: SVG Repo, www.svgrepo.com, Generator: SVG Repo Mixer Tools -->
<svg fill="#000000" width="800px" height="800px" viewBox="0 0 256 256" id="Layer_1" version="1.1" xml:space="preserve" xmlns="http://www.w3.org/2000/svg" xmlns:xlink="http://www.w3.org/1999/xlink">
<g>
<path d="M77.5,85.6c0,0.2,0,0.3,0,0.4c0,0.7,0.2,1.4,0.5,2l2.2,11.4c0,0,0,0,0,0c4.5,22.9,24.6,39.4,47.9,39.4   c23.3,0,43.4-16.6,47.9-39.5l6.8-34.8c2-14.6-2.4-29.4-12.2-40.5C160.7,13,146.7,6.6,132,6.6h-8c-14.7,0-28.8,6.4-38.5,17.5   C75.8,35.2,71.4,50,73.4,64.9L77.5,85.6z M128,129.2c-18.7,0-34.8-13.3-38.3-31.6l-2.4-12.5c0.7-6,4-19.9,12.2-24.9   c4.9-3,11.6-2.7,19.9,0.8c20.5,8.8,36.4,8.9,46.7,7.2c5.3,5.6,3.4,13.4,2.9,15c-0.1,0.4-0.2,1.2-0.2,1.7c0,0.1,0,0.1,0,0.2   l-2.4,12.6C162.8,115.9,146.7,129.2,128,129.2z M92.8,30.5c7.9-9,19.2-14.2,31.2-14.2h8c11.9,0,23.3,5.2,31.2,14.2   c7.6,8.6,11.1,20,10,31.2c-0.8-0.9-1.7-1.7-2.7-2.5c-1.1-0.9-2.6-1.2-4-0.9c-8.8,1.9-23.5,2.3-43.3-6.2   c-11.4-4.8-21.1-4.9-28.8-0.2c-5.1,3.1-8.6,7.9-11.1,12.9L83,63.3C81.4,51.5,85,39.5,92.8,30.5z"/>
<path d="M237.4,243.5L223,175.7c-1.2-5.6-5.3-10.3-10.7-12.2l-42.2-15c-1.8-0.6-3.7-0.2-5,1.1L128,186.7l-37.1-37.1   c-1.3-1.3-3.3-1.8-5-1.1l-42.2,15c-5.4,1.9-9.5,6.6-10.7,12.2l-14.4,67.9c-0.3,1.4,0.1,2.9,1,4.1c0.9,1.1,2.3,1.8,3.8,1.8h209.4   c1.5,0,2.8-0.7,3.8-1.8C237.4,246.5,237.7,245,237.4,243.5z M29.3,239.7l13.2-62c0.5-2.4,2.2-4.3,4.4-5.1l39.3-14l38.3,38.3   c1.9,1.9,5,1.9,6.9,0l38.3-38.3l39.3,14c2.3,0.8,3.9,2.7,4.5,5.1c0,0,0,0,0,0l13.2,62H29.3z"/>
</g>
</svg>