<?xml version="1.0" encoding="UTF-8"?>
<svg xmlns="http://www.w3.org/2000/svg" id="Layer_1" data-name="Layer 1" viewBox="0 0 24 24" width="512" height="512"><path d="M23.5,23h-3.5V5.5c0-1.93-1.57-3.5-3.5-3.5h-.837c-.218-.46-.538-.872-.944-1.205-.814-.667-1.873-.93-2.906-.726L7.617,.908c-2.096,.419-3.617,2.275-3.617,4.413V23H.5c-.276,0-.5,.224-.5,.5s.224,.5,.5,.5H23.5c.276,0,.5-.224,.5-.5s-.224-.5-.5-.5ZM16.5,3c1.378,0,2.5,1.121,2.5,2.5V23h-3V3.501c0-.169-.012-.336-.036-.501h.536ZM5,5.321c0-1.663,1.183-3.106,2.813-3.433l4.196-.839c.735-.15,1.494,.041,2.076,.519,.581,.477,.915,1.181,.915,1.933V23H5V5.321Zm8,6.679c0,.552-.448,1-1,1s-1-.448-1-1,.448-1,1-1,1,.448,1,1Z"/></svg>
