<?xml version="1.0" encoding="UTF-8"?>
<svg xmlns="http://www.w3.org/2000/svg" id="Layer_1" data-name="Layer 1" viewBox="0 0 24 24">
  <path d="m24,9.987v14.013h-1v-14.013c0-.525-.236-1.011-.648-1.333L13.041,1.359c-.613-.481-1.47-.48-2.083,0L1.649,8.653c-.321.251-.649.666-.649,1.833v14.013H0v-14.013c0-1.236.328-2.069,1.032-2.621L10.341.572c.977-.765,2.34-.765,3.317,0l9.31,7.294c.656.513,1.032,1.286,1.032,2.121Zm-4,2.513v11.5h-1v-2H5v2h-1v-14h1v4h1.278c-.172-.295-.278-.634-.278-1,0-1.103.897-2,2-2s2,.897,2,2c0,.366-.106.705-.278,1h1.278v-1.5c0-1.378,1.122-2.5,2.5-2.5h4c1.379,0,2.5,1.122,2.5,2.5Zm-8,1.5h7v-1.5c0-.827-.673-1.5-1.5-1.5h-4c-.827,0-1.5.673-1.5,1.5v1.5Zm-4,0c.551,0,1-.449,1-1s-.449-1-1-1-1,.449-1,1,.449,1,1,1Zm-3,7h1.278c-.172-.295-.278-.634-.278-1,0-1.103.897-2,2-2s2,.897,2,2c0,.366-.106.705-.278,1h1.778v-1.5c0-1.378,1.122-2.5,2.5-2.5h5v-2H5v6Zm3,0c.551,0,1-.449,1-1s-.449-1-1-1-1,.449-1,1,.449,1,1,1Zm11,0v-3h-5c-.827,0-1.5.673-1.5,1.5v1.5h6.5Z"/>
</svg>
