<?xml version="1.0" encoding="UTF-8"?>
<svg xmlns="http://www.w3.org/2000/svg" id="Layer_1" data-name="Layer 1" viewBox="0 0 24 24">
  <path d="m16.5,10h-2c-1.93,0-3.5,1.57-3.5,3.5v.5h-5v-3c0-.552-.448-1-1-1s-1,.448-1,1v12c0,.552.448,1,1,1s1-.448,1-1h12c0,.552.447,1,1,1s1-.448,1-1v-9.5c0-1.93-1.57-3.5-3.5-3.5Zm-3.5,3.5c0-.827.673-1.5,1.5-1.5h2c.827,0,1.5.673,1.5,1.5v.5h-5v-.5Zm-7,2.5h12v1h-3.5c-1.93,0-3.5,1.57-3.5,3.5v.5h-5v-5Zm7,5v-.5c0-.827.673-1.5,1.5-1.5h3.5v2h-5Zm-4.5-8c-.828,0-1.5-.672-1.5-1.5s.672-1.5,1.5-1.5,1.5.672,1.5,1.5-.672,1.5-1.5,1.5Zm1.5,5.5c0,.828-.672,1.5-1.5,1.5s-1.5-.672-1.5-1.5.672-1.5,1.5-1.5,1.5.672,1.5,1.5Zm14-8.776v13.276c0,.552-.447,1-1,1s-1-.448-1-1v-13.276c0-.999-.494-1.929-1.322-2.487l-7-4.724c-1.02-.688-2.336-.688-3.356,0L3.322,7.237c-.828.559-1.322,1.488-1.322,2.487v13.276c0,.552-.448,1-1,1s-1-.448-1-1v-13.276c0-1.665.824-3.214,2.203-4.145L9.203.855c1.699-1.146,3.895-1.146,5.594,0l7,4.724c1.379.931,2.203,2.48,2.203,4.145Z"/>
</svg>
