<?xml version="1.0" encoding="UTF-8"?>
<svg xmlns="http://www.w3.org/2000/svg" id="Layer_1" data-name="Layer 1" viewBox="0 0 24 24">
  <path d="m23.5,23h-.5V4.619s.924-1.847.933-1.883c.166-.662.02-1.351-.4-1.889-.42-.538-1.052-.847-1.735-.847H2.202C1.52,0,.887.309.467.847.047,1.385-.099,2.073.067,2.735c.009.036.933,1.883.933,1.883v18.381h-.5c-.276,0-.5.224-.5.5s.224.5.5.5h3c.827,0,1.5-.673,1.5-1.5v-7.828c0-1.735,1.097-3.294,2.73-3.878,2.94-1.053,5.6-1.053,8.54,0,1.633.584,2.73,2.143,2.73,3.878v7.828c0,.827.673,1.5,1.5,1.5h3c.276,0,.5-.224.5-.5s-.224-.5-.5-.5Zm-1.5,0h-1.5c-.276,0-.5-.224-.5-.5v-7.828c0-2.157-1.364-4.094-3.393-4.82-3.156-1.131-6.058-1.131-9.214,0-2.029.726-3.393,2.663-3.393,4.82v7.828c0,.276-.224.5-.5.5h-1.5V5h20v18Zm.975-20.557l-.783,1.557H1.808l-.783-1.557c-.071-.346.011-.701.23-.981.229-.293.574-.462.947-.462h19.596c.373,0,.718.168.947.462.219.28.301.636.23.981Zm-10.142,10.319h0c-.231-.207-.541-.299-.848-.25-.304.047-.568.226-.724.489-.45.761-.557,1.672-.651,2.475-.125,1.062-.227,1.423-.474,1.504-.048-.162-.085-.449-.107-.62-.039-.302-.075-.587-.17-.802-.133-.301-.408-.506-.735-.55-.335-.045-.655.085-.866.346-.805.995-1.772,3.319-.939,5.32.839,2.018,2.642,3.317,4.958,3.317,2.652,0,4.722-2.356,4.723-5.011,0-2.51-2.578-4.805-4.167-6.218Zm-.076,9.85c-.391.456-1.163.455-1.553,0-.337-.394-.283-1.043.122-1.448l.639-.67.671.67c.404.404.459,1.054.122,1.448Zm1.152-.121c.179-.694-.012-1.478-.567-2.033l-.67-.67c-.381-.382-1.002-.382-1.383,0l-.67.67c-.539.539-.733,1.295-.58,1.974-.767-.468-1.405-1.2-1.797-2.14-.63-1.516.085-3.432.703-4.328.036.081.069.337.093.524.077.603.193,1.513.962,1.513,1.32,0,1.477-1.334,1.603-2.407.083-.705.177-1.504.536-2.093.008-.003.021,0,.029.008l.178.159c1.456,1.295,3.655,3.252,3.654,5.314,0,1.509-.846,2.822-2.09,3.509Z"/>
</svg>
