<?xml version="1.0" encoding="UTF-8"?>
<svg xmlns="http://www.w3.org/2000/svg" id="Layer_1" data-name="Layer 1" viewBox="0 0 24 24">
  <path d="m14,6c0-3.309-2.691-6-6-6S2,2.691,2,6s2.691,6,6,6,6-2.691,6-6Zm-6,5c-2.757,0-5-2.243-5-5S5.243,1,8,1s5,2.243,5,5-2.243,5-5,5Zm-1.01,3.55c.055.271-.12.535-.391.59-3.245.658-5.6,3.543-5.6,6.86v1.5c0,.276-.224.5-.5.5s-.5-.224-.5-.5v-1.5c0-3.79,2.692-7.087,6.4-7.84.274-.048.535.121.59.391Zm14.01-1.55h-9c-1.654,0-3,1.346-3,3v5c0,1.654,1.346,3,3,3h9c1.654,0,3-1.346,3-3v-5c0-1.654-1.346-3-3-3Zm2,8c0,1.103-.897,2-2,2h-9c-1.103,0-2-.897-2-2v-5c0-1.103.897-2,2-2h9c1.103,0,2,.897,2,2v5Zm-4.25-6h-.75c-.552,0-1,.449-1,1v5.5c0,.276.224.5.5.5s.5-.224.5-.5v-2h.75c.136,0,.267-.017.396-.04l.89,2.226c.078.196.266.314.464.314.062,0,.125-.011.186-.036.257-.103.381-.394.278-.65l-.899-2.247c.564-.409.935-1.069.935-1.817,0-1.241-1.01-2.25-2.25-2.25Zm-.75,3.5v-2.5h.75c.689,0,1.25.561,1.25,1.25s-.561,1.25-1.25,1.25h-.75Zm-2-3v6c0,.276-.224.5-.5.5s-.5-.224-.5-.5v-2.5h-2v2.5c0,.276-.224.5-.5.5s-.5-.224-.5-.5v-6c0-.276.224-.5.5-.5s.5.224.5.5v2.5h2v-2.5c0-.276.224-.5.5-.5s.5.224.5.5Z"/>
</svg>
