<?xml version="1.0" encoding="UTF-8"?>
<svg xmlns="http://www.w3.org/2000/svg" id="Layer_1" data-name="Layer 1" viewBox="0 0 24 24" width="512" height="512"><path d="M19.5,0H4.5C2.02,0,0,2.02,0,4.5v15c0,2.48,2.02,4.5,4.5,4.5h15c2.48,0,4.5-2.02,4.5-4.5V4.5c0-2.48-2.02-4.5-4.5-4.5ZM4.5,1h15c1.93,0,3.5,1.57,3.5,3.5v4.5H1V4.5c0-1.93,1.57-3.5,3.5-3.5Zm15,22H4.5c-1.93,0-3.5-1.57-3.5-3.5V10H23v9.5c0,1.93-1.57,3.5-3.5,3.5Zm-.5-4.5c0,.28-.22,.5-.5,.5H5.5c-.28,0-.5-.22-.5-.5s.22-.5,.5-.5h13c.28,0,.5,.22,.5,.5Zm0-4c0,.28-.22,.5-.5,.5H5.5c-.28,0-.5-.22-.5-.5s.22-.5,.5-.5h13c.28,0,.5,.22,.5,.5Zm-3.39-7.1c.25,.25,.58,.37,.9,.37s.64-.12,.88-.36l2.45-2.25c.36-.36,.47-.91,.28-1.38-.2-.48-.66-.78-1.17-.78h-4.87c-.52,0-.98,.31-1.17,.78-.2,.48-.09,1.02,.29,1.4l2.42,2.21Zm-1.79-3.23s.09-.17,.25-.17h4.87c.16,0,.23,.12,.25,.17,.02,.05,.06,.18-.04,.28l-2.45,2.25c-.1,.1-.26,.12-.4-.02l-2.42-2.21c-.12-.12-.08-.24-.06-.29Z"/></svg>
