<?xml version="1.0" encoding="UTF-8"?>
<svg version="1.1" xmlns="http://www.w3.org/2000/svg" width="500" height="500">
<path d="M0 0 C10.05859375 -0.09765625 10.05859375 -0.09765625 13 0 C14 1 14 1 14.02172852 2.76586914 C13.97459717 3.51473389 13.92746582 4.26359863 13.87890625 5.03515625 C13.83056641 5.84404297 13.78222656 6.65292969 13.73242188 7.48632812 C13.67634766 8.33646484 13.62027344 9.18660156 13.5625 10.0625 C13.51029297 10.91650391 13.45808594 11.77050781 13.40429688 12.65039062 C13.27421239 14.76721995 13.13770029 16.88365244 13 19 C13.53109375 18.57847656 14.0621875 18.15695313 14.609375 17.72265625 C15.66898438 16.90087891 15.66898438 16.90087891 16.75 16.0625 C17.44609375 15.51722656 18.1421875 14.97195312 18.859375 14.41015625 C23.0502261 11.64939485 27.0632766 11.75316383 32 12 C33.46547575 12.3233434 34.92443234 12.67776163 36.375 13.0625 C37.57125 13.371875 38.7675 13.68125 40 14 C40.33 13.67 40.66 13.34 41 13 C42.68608966 12.92794489 44.37500659 12.91613932 46.0625 12.9375 C46.98160156 12.94652344 47.90070313 12.95554688 48.84765625 12.96484375 C49.55792969 12.97644531 50.26820313 12.98804688 51 13 C51.99 16.465 51.99 16.465 53 20 C53.474375 19.236875 53.94875 18.47375 54.4375 17.6875 C58.42861397 13.50169754 62.8365311 12.07611354 68.59765625 11.9375 C74.26518222 12.34781862 79.48181067 13.17387991 83.4375 17.61328125 C87.76358089 23.35271243 88 26.53487568 88 34 C80.08 34 72.16 34 64 34 C66.53440835 37.11351716 66.53440835 37.11351716 68.9375 37.328125 C69.618125 37.30234375 70.29875 37.2765625 71 37.25 C71.680625 37.23453125 72.36125 37.2190625 73.0625 37.203125 C75.21614892 37.04772119 75.21614892 37.04772119 78 36 C80.51698632 37.07254877 82.66805545 38.54803452 85 40 C84.67043582 43.04846865 84.4305501 44.58429646 82.1875 46.75 C76.1983437 50.17237503 68.20601416 49.87424517 61.61328125 48.50390625 C56.92041396 46.92173956 54.15548027 44.64852406 51 41 C51.04640625 41.56847656 51.0928125 42.13695312 51.140625 42.72265625 C51.36947066 47.61831868 51.11064617 51.32436918 48.41015625 55.49609375 C44.81109618 59.33442652 38.83570185 61.75464809 33.65234375 62.203125 C27.02954422 62.3174755 21.13825645 61.61866909 15 59 C14.34 58.34 13.68 57.68 13 57 C13.35944471 53.52536779 14.87579485 50.73112091 17 48 C20.06915385 47.41934927 21.84346841 47.93952189 24.75 49.0625 C29.05461757 50.30421661 32.63439948 49.71789875 37 49 C37 47.68 37 46.36 37 45 C36.2265625 45.495 36.2265625 45.495 35.4375 46 C29.96076911 48.24686395 25.08987267 46.94997187 19.796875 44.94921875 C17.77210707 43.87961308 16.46347558 42.75707408 15 41 C15 40.34 15 39.68 15 39 C14.34 39 13.68 39 13 39 C13.20625 40.27875 13.4125 41.5575 13.625 42.875 C13.9765625 45.0546875 13.9765625 45.0546875 14 47 C12 49 12 49 8.125 49.1875 C5.25195306 49.1251554 2.78056239 48.72088654 0 48 C-1.485 48.495 -1.485 48.495 -3 49 C-9.79906792 49.76887682 -14.69332348 49.37314254 -20.34375 45.38671875 C-21.99452309 44.00458562 -23.50802822 42.55110481 -25 41 C-25.515625 41.763125 -26.03125 42.52625 -26.5625 43.3125 C-30.13431948 47.25065994 -33.41250837 48.71424071 -38.58203125 49.28515625 C-44.91967962 49.48902466 -50.15843202 48.42316894 -56 46 C-56.495 46.99 -56.495 46.99 -57 48 C-61.1645505 48.96590346 -65.19469012 49.12841542 -69.45703125 49.1328125 C-70.65134766 49.13410156 -71.84566406 49.13539063 -73.07617188 49.13671875 C-74.9256543 49.13091797 -74.9256543 49.13091797 -76.8125 49.125 C-78.06482422 49.12886719 -79.31714844 49.13273437 -80.60742188 49.13671875 C-82.38922852 49.13478516 -82.38922852 49.13478516 -84.20703125 49.1328125 C-85.2947583 49.13168457 -86.38248535 49.13055664 -87.50317383 49.12939453 C-90 49 -90 49 -91 48 C-91.15620555 46.58672053 -91.25056173 45.1664541 -91.31640625 43.74609375 C-91.35830078 42.89208984 -91.40019531 42.03808594 -91.44335938 41.15820312 C-91.48267578 40.26037109 -91.52199219 39.36253906 -91.5625 38.4375 C-91.60568359 37.53580078 -91.64886719 36.63410156 -91.69335938 35.70507812 C-91.79978142 33.47021515 -91.90179988 31.23523692 -92 29 C-95.45508753 39.58889284 -98.76410313 50.07548635 -101 61 C-102.98 61.495 -102.98 61.495 -105 62 C-104.86004486 58.79138226 -104.71197743 55.58318712 -104.5625 52.375 C-104.50352539 51.01955078 -104.50352539 51.01955078 -104.44335938 49.63671875 C-104.22421542 45.01783854 -103.8991149 40.54846364 -103 36 C-104.134375 36.185625 -105.26875 36.37125 -106.4375 36.5625 C-107.613125 36.706875 -108.78875 36.85125 -110 37 C-110.33 36.67 -110.66 36.34 -111 36 C-110.93438025 32.96657808 -110.80611829 29.96443948 -110.625 26.9375 C-110.58117187 26.10283203 -110.53734375 25.26816406 -110.4921875 24.40820312 C-110.2020036 19.23728721 -109.87318378 14.10783976 -109 9 C-104.76827715 5.37280899 -99.49026195 4 -94 4 C-94.62031591 10.57534861 -96.14897283 16.66692592 -98 23 C-96.02 23 -94.04 23 -92 23 C-92 16.4 -92 9.8 -92 3 C-87.38 3 -82.76 3 -78 3 C-77.16944608 7.15276962 -76.88325238 10.4322708 -76.90234375 14.61328125 C-76.90556641 15.86044922 -76.90878906 17.10761719 -76.91210938 18.39257812 C-76.92467773 20.33293945 -76.92467773 20.33293945 -76.9375 22.3125 C-76.94201172 23.62541016 -76.94652344 24.93832031 -76.95117188 26.29101562 C-76.96294041 29.52736328 -76.98087537 32.76368745 -77 36 C-71.72 36.33 -66.44 36.66 -61 37 C-61.33 36.01 -61.66 35.02 -62 34 C-62.53106681 27.73341159 -61.8553033 23.1112803 -58 18 C-53.29175203 13.52439487 -48.1254535 12.16262443 -41.73828125 11.87109375 C-33.80680169 12.24447296 -28.53410623 15.50148287 -23 21 C-22.773125 20.236875 -22.54625 19.47375 -22.3125 18.6875 C-20.62552065 15.23320896 -19.55218585 14.48007744 -16 13 C-10.09469462 11.82476653 -6.72158015 11.71136794 -1 14 C-0.67 9.38 -0.34 4.76 0 0 Z M65 23 C64.67 24.32 64.34 25.64 64 27 C67.3 27 70.6 27 74 27 C74.33 26.01 74.66 25.02 75 24 C72.71294169 22.85647084 71.40735238 22.89665561 68.875 22.9375 C66.956875 22.9684375 66.956875 22.9684375 65 23 Z M-46.9375 25.625 C-48.31565201 28.70557508 -48.48746608 30.65737548 -48 34 C-46.52006844 36.56338689 -46.52006844 36.56338689 -44 38 C-40.86637282 38.08892339 -40.86637282 38.08892339 -38 37 C-35.54188375 33.31282562 -35.68881836 31.35654296 -36 27 C-36.66 26.01 -37.32 25.02 -38 24 C-42.84838688 23.33992976 -42.84838688 23.33992976 -46.9375 25.625 Z M-12 26 C-12.55723056 31.22396933 -12.55723056 31.22396933 -10.8125 35.9375 C-8.41313899 37.34402197 -6.80008242 37.93170531 -4 38 C-1.50279176 36.6715404 -1.50279176 36.6715404 0 34 C0.45586378 31.1466304 0.28398804 28.93454308 0 26 C-1.7564331 23.84294485 -1.7564331 23.84294485 -3.875 23.734375 C-4.57625 23.73953125 -5.2775 23.7446875 -6 23.75 C-6.70125 23.74484375 -7.4025 23.7396875 -8.125 23.734375 C-10.2435669 23.84294485 -10.2435669 23.84294485 -12 26 Z M27 24 C24.85237816 27.22143276 24.438932 28.2595467 25 32 C27.37853808 34.75910418 28.9262153 34.99093872 32.5625 35.4375 C35.97781789 35.30996634 35.97781789 35.30996634 38 33.375 C39.32886701 30.21894086 38.87009103 28.26284135 38 25 C36.33315985 23.33315985 34.34356931 23.78927236 32.0625 23.75 C31.16660156 23.72421875 30.27070313 23.6984375 29.34765625 23.671875 C28.18556641 23.83429688 28.18556641 23.83429688 27 24 Z " fill="#0F0F0F" transform="translate(334,226)"/>
<path d="M0 0 C2.8203125 0.0234375 2.8203125 0.0234375 6.125 0.375 C7.22070312 0.48585937 8.31640625 0.59671875 9.4453125 0.7109375 C10.28835937 0.80632812 11.13140625 0.90171875 12 1 C13.12796398 4.60636233 13.11416035 7.97144004 13.09765625 11.734375 C13.09443359 13.02988281 13.09121094 14.32539063 13.08789062 15.66015625 C13.07953598 17.02343817 13.07107104 18.38671942 13.0625 19.75 C13.05748168 21.12890465 13.05291935 22.50781104 13.04882812 23.88671875 C13.03704102 27.25783118 13.01910561 30.6289211 13 34 C18.28 34 23.56 34 29 34 C28.98839844 32.42347656 28.97679688 30.84695313 28.96484375 29.22265625 C28.95546757 27.16927201 28.94636718 25.1158865 28.9375 23.0625 C28.92912109 22.02158203 28.92074219 20.98066406 28.91210938 19.90820312 C28.90727539 18.42416992 28.90727539 18.42416992 28.90234375 16.91015625 C28.89448853 15.53549194 28.89448853 15.53549194 28.88647461 14.13305664 C29 12 29 12 30 11 C32.18639453 10.92741054 34.37500389 10.91626217 36.5625 10.9375 C38.35880859 10.95103516 38.35880859 10.95103516 40.19140625 10.96484375 C41.11824219 10.97644531 42.04507813 10.98804688 43 11 C43.02505615 11.6612085 43.0501123 12.32241699 43.07592773 13.00366211 C43.19153102 15.98182305 43.31441754 18.9596392 43.4375 21.9375 C43.47681641 22.97841797 43.51613281 24.01933594 43.55664062 25.09179688 C43.59853516 26.08115234 43.64042969 27.07050781 43.68359375 28.08984375 C43.73858032 29.46450806 43.73858032 29.46450806 43.79467773 30.86694336 C43.77003864 32.9820728 43.77003864 32.9820728 45 34 C47.33944736 33.71269945 49.6739143 33.38063221 52 33 C53.17700048 28.37540756 53.11408412 23.92133538 53.0625 19.1875 C53.05798828 18.39923828 53.05347656 17.61097656 53.04882812 16.79882812 C53.03711312 14.86585239 53.01917998 12.93291607 53 11 C57.27060618 10.88410838 61.54080984 10.81285198 65.8125 10.75 C67.02744141 10.71648437 68.24238281 10.68296875 69.49414062 10.6484375 C71.23920898 10.62910156 71.23920898 10.62910156 73.01953125 10.609375 C74.62985229 10.5779541 74.62985229 10.5779541 76.27270508 10.54589844 C79 11 79 11 80.8737793 12.83691406 C82 15 82 15 82 18 C82.99 17.67 83.98 17.34 85 17 C85.45375 15.989375 85.9075 14.97875 86.375 13.9375 C89 11 89 11 92.1484375 10.60546875 C95.45019767 10.62337417 98.70864654 10.74316028 102 11 C102.495 12.485 102.495 12.485 103 14 C104.1446875 13.2884375 104.1446875 13.2884375 105.3125 12.5625 C110.78251315 9.88541121 116.82840461 9.32165594 122.7578125 10.58984375 C128.92385199 12.734153 131.81112384 15.34231649 135 21 C136.28317892 24.84953676 136.06643637 27.94738135 136 32 C132.95157135 32.90901939 130.40338364 33.06173367 127.234375 32.87890625 C125.90019531 32.80639648 125.90019531 32.80639648 124.5390625 32.73242188 C123.61867188 32.67634766 122.69828125 32.62027344 121.75 32.5625 C120.81414062 32.51029297 119.87828125 32.45808594 118.9140625 32.40429688 C116.60901113 32.27493175 114.30442711 32.13997966 112 32 C113.30237892 33.55528944 113.30237892 33.55528944 115 35 C118.58533886 35.20910846 122.06711403 34.99345797 125.65234375 34.8125 C129.22948879 35.01285351 130.46438437 35.55970827 133 38 C132.8125 40.3125 132.8125 40.3125 132 43 C125.73812135 47.61401585 119.49439669 47.42635632 112 47 C110.44667003 46.67669345 108.90109976 46.30902837 107.375 45.875 C106.26125 45.58625 105.1475 45.2975 104 45 C103.01 45.99 103.01 45.99 102 47 C96.36600402 47.79059028 91.53555948 48.13631402 86.875 44.6875 C85.56239661 42.80610181 84.27250048 40.90875072 83 39 C82.401875 40.134375 81.80375 41.26875 81.1875 42.4375 C79.375 45.875 79.375 45.875 76 47 C74.56605523 47.09179741 73.12828473 47.13066539 71.69140625 47.1328125 C70.44713867 47.13474609 70.44713867 47.13474609 69.17773438 47.13671875 C68.31470703 47.13285156 67.45167969 47.12898438 66.5625 47.125 C65.70333984 47.12886719 64.84417969 47.13273437 63.95898438 47.13671875 C63.12818359 47.13542969 62.29738281 47.13414062 61.44140625 47.1328125 C60.68545166 47.13168457 59.92949707 47.13055664 59.15063477 47.12939453 C57 47 57 47 54.90991211 46.42919922 C52.7952927 45.7812714 52.7952927 45.7812714 50 47 C44.31104596 47.42104135 39.32590217 47.24248512 34 45 C33.34 45.66 32.68 46.32 32 47 C28.8671875 47.25878906 28.8671875 47.25878906 24.875 47.265625 C24.1722998 47.26753845 23.46959961 47.2694519 22.74560547 47.27142334 C21.25943646 47.27278475 19.77325555 47.26909132 18.28710938 47.26074219 C16.00884354 47.25004154 13.73136623 47.26063839 11.453125 47.2734375 C10.01041492 47.2721159 8.56770534 47.26955349 7.125 47.265625 C5.80757813 47.26336914 4.49015625 47.26111328 3.1328125 47.25878906 C0 47 0 47 -2 45 C-2.25396729 43.14050293 -2.25396729 43.14050293 -2.25878906 40.85742188 C-2.26509338 40.00313599 -2.27139771 39.1488501 -2.27789307 38.26867676 C-2.2738446 37.34470093 -2.26979614 36.4207251 -2.265625 35.46875 C-2.26753845 34.52189331 -2.2694519 33.57503662 -2.27142334 32.5994873 C-2.27278573 30.59545628 -2.26908556 28.59141646 -2.26074219 26.58740234 C-2.25004347 23.51249447 -2.26063572 20.43817086 -2.2734375 17.36328125 C-2.27211591 15.41926954 -2.26955354 13.47525819 -2.265625 11.53125 C-2.27169769 10.14528625 -2.27169769 10.14528625 -2.27789307 8.73132324 C-2.27158875 7.87703735 -2.26528442 7.02275146 -2.25878906 6.14257812 C-2.25719788 5.38916138 -2.25560669 4.63574463 -2.25396729 3.85949707 C-2 2 -2 2 0 0 Z M98.1171875 18.79296875 C97.37726563 19.58316406 96.63734375 20.37335938 95.875 21.1875 C95.12992187 21.96480469 94.38484375 22.74210937 93.6171875 23.54296875 C91.74107597 25.87579105 91.74107597 25.87579105 92.09765625 28.625 C93.33923817 31.89288662 95.42898256 33.69267665 98 36 C97.96519531 35.38253906 97.93039063 34.76507813 97.89453125 34.12890625 C97.69270274 27.81455703 98.62790596 22.84551745 101 17 C99.68737126 16.88506372 99.68737126 16.88506372 98.1171875 18.79296875 Z M67 19 C67.33 25.27 67.66 31.54 68 38 C71.60964568 34.39035432 73.698339 32.23990184 76 28 C75.07544441 26.491987 74.1349253 24.99375083 73.1875 23.5 C72.66542969 22.6646875 72.14335937 21.829375 71.60546875 20.96875 C71.07566406 20.3190625 70.54585938 19.669375 70 19 C69.01 19 68.02 19 67 19 Z M113 21 C112.67 22.32 112.34 23.64 112 25 C115.3 25 118.6 25 122 25 C122.33 24.01 122.66 23.02 123 22 C120.71294169 20.85647084 119.40735238 20.89665561 116.875 20.9375 C114.956875 20.9684375 114.956875 20.9684375 113 21 Z " fill="#1A1A1A" transform="translate(84,228)"/>
<path d="M0 0 C3.53297527 3.28876039 5.43877978 7.06837993 5.9296875 11.87109375 C5.94316644 13.77499332 5.83096313 15.67901622 5.6953125 17.578125 C2.64688385 18.48714439 0.09869614 18.63985867 -3.0703125 18.45703125 C-3.95976562 18.40869141 -4.84921875 18.36035156 -5.765625 18.31054688 C-6.68601562 18.25447266 -7.60640625 18.19839844 -8.5546875 18.140625 C-9.49054688 18.08841797 -10.42640625 18.03621094 -11.390625 17.98242188 C-13.69567637 17.85305675 -16.00026039 17.71810466 -18.3046875 17.578125 C-17.00230858 19.13341444 -17.00230858 19.13341444 -15.3046875 20.578125 C-11.71934864 20.78723346 -8.23757347 20.57158297 -4.65234375 20.390625 C-1.07519871 20.59097851 0.15969687 21.13783327 2.6953125 23.578125 C2.5078125 25.890625 2.5078125 25.890625 1.6953125 28.578125 C-4.56656615 33.19214085 -10.81029081 33.00448132 -18.3046875 32.578125 C-19.85801747 32.25481845 -21.40358774 31.88715337 -22.9296875 31.453125 C-24.0434375 31.164375 -25.1571875 30.875625 -26.3046875 30.578125 C-27.2946875 31.568125 -27.2946875 31.568125 -28.3046875 32.578125 C-33.93868348 33.36871528 -38.76912802 33.71443902 -43.4296875 30.265625 C-44.74229089 28.38422681 -46.03218702 26.48687572 -47.3046875 24.578125 C-47.9028125 25.7125 -48.5009375 26.846875 -49.1171875 28.015625 C-50.9296875 31.453125 -50.9296875 31.453125 -54.3046875 32.578125 C-55.73863227 32.66992241 -57.17640277 32.70879039 -58.61328125 32.7109375 C-59.85754883 32.71287109 -59.85754883 32.71287109 -61.12695312 32.71484375 C-61.98998047 32.71097656 -62.85300781 32.70710938 -63.7421875 32.703125 C-64.60134766 32.70699219 -65.46050781 32.71085937 -66.34570312 32.71484375 C-67.17650391 32.71355469 -68.00730469 32.71226562 -68.86328125 32.7109375 C-69.61923584 32.70980957 -70.37519043 32.70868164 -71.15405273 32.70751953 C-73.3046875 32.578125 -73.3046875 32.578125 -75.39477539 32.00732422 C-77.5093948 31.3593964 -77.5093948 31.3593964 -80.3046875 32.578125 C-85.99364154 32.99916635 -90.97878533 32.82061012 -96.3046875 30.578125 C-96.9646875 31.238125 -97.6246875 31.898125 -98.3046875 32.578125 C-100.74213647 32.75300754 -103.0640483 32.80989905 -105.5 32.7734375 C-106.20744354 32.7706076 -106.91488708 32.76777771 -107.64376831 32.76486206 C-109.9059126 32.75365637 -112.16766265 32.72855179 -114.4296875 32.703125 C-115.96223387 32.69309567 -117.49478644 32.68396974 -119.02734375 32.67578125 C-122.78661051 32.65371586 -126.54558214 32.61918396 -130.3046875 32.578125 C-130.6346875 31.918125 -130.9646875 31.258125 -131.3046875 30.578125 C-120.4146875 30.578125 -109.5246875 30.578125 -98.3046875 30.578125 C-97.9746875 29.258125 -97.6446875 27.938125 -97.3046875 26.578125 C-96.7065625 27.073125 -96.1084375 27.568125 -95.4921875 28.078125 C-90.14386746 30.59498149 -84.0201318 30.55165654 -78.4609375 28.55859375 C-77.749375 28.23503906 -77.0378125 27.91148437 -76.3046875 27.578125 C-76.3046875 28.238125 -76.3046875 28.898125 -76.3046875 29.578125 C-72.76388079 29.78252326 -69.22459743 29.90610382 -65.6796875 30.015625 C-64.68066406 30.07427734 -63.68164062 30.13292969 -62.65234375 30.19335938 C-57.10647418 30.44372397 -57.10647418 30.44372397 -52.36035156 27.98876953 C-50.76255128 26.09870922 -50.76255128 26.09870922 -49.51025391 24.09399414 C-49.11241699 23.59375732 -48.71458008 23.09352051 -48.3046875 22.578125 C-47.3146875 22.578125 -46.3246875 22.578125 -45.3046875 22.578125 C-43.9846875 24.888125 -42.6646875 27.198125 -41.3046875 29.578125 C-37.3446875 29.578125 -33.3846875 29.578125 -29.3046875 29.578125 C-30.11035156 28.54171875 -30.91601562 27.5053125 -31.74609375 26.4375 C-32.78712535 25.06821519 -33.82745363 23.69839547 -34.8671875 22.328125 C-35.40021484 21.64621094 -35.93324219 20.96429688 -36.48242188 20.26171875 C-36.98193359 19.59785156 -37.48144531 18.93398438 -37.99609375 18.25 C-38.69520874 17.33879395 -38.69520874 17.33879395 -39.40844727 16.40917969 C-40.3046875 14.578125 -40.3046875 14.578125 -40.06225586 12.51904297 C-38.93706492 9.63626244 -37.16388795 7.41656559 -35.3046875 4.953125 C-32.57286923 1.40913971 -32.57286923 1.40913971 -30.3046875 -2.421875 C-33.9346875 -2.421875 -37.5646875 -2.421875 -41.3046875 -2.421875 C-41.3046875 -2.751875 -41.3046875 -3.081875 -41.3046875 -3.421875 C-37.0146875 -3.421875 -32.7246875 -3.421875 -28.3046875 -3.421875 C-27.8096875 -1.936875 -27.8096875 -1.936875 -27.3046875 -0.421875 C-25.974375 -1.1334375 -25.974375 -1.1334375 -24.6171875 -1.859375 C-16.43768126 -5.71763266 -7.49482847 -5.27975771 0 0 Z M-32.1875 4.37109375 C-32.92742187 5.16128906 -33.66734375 5.95148438 -34.4296875 6.765625 C-35.17476563 7.54292969 -35.91984375 8.32023438 -36.6875 9.12109375 C-38.56361153 11.45391605 -38.56361153 11.45391605 -38.20703125 14.203125 C-36.96544933 17.47101162 -34.87570494 19.27080165 -32.3046875 21.578125 C-32.33949219 20.96066406 -32.37429687 20.34320313 -32.41015625 19.70703125 C-32.61198476 13.39268203 -31.67678154 8.42364245 -29.3046875 2.578125 C-30.61731624 2.46318872 -30.61731624 2.46318872 -32.1875 4.37109375 Z M-17.3046875 6.578125 C-17.6346875 7.898125 -17.9646875 9.218125 -18.3046875 10.578125 C-15.0046875 10.578125 -11.7046875 10.578125 -8.3046875 10.578125 C-7.9746875 9.588125 -7.6446875 8.598125 -7.3046875 7.578125 C-9.59174581 6.43459584 -10.89733512 6.47478061 -13.4296875 6.515625 C-15.3478125 6.5465625 -15.3478125 6.5465625 -17.3046875 6.578125 Z " fill="#2B2B2B" transform="translate(214.3046875,242.421875)"/>
<path d="M0 0 C-0.62031591 6.57534861 -2.14897283 12.66692592 -4 19 C-2.02 19 -0.04 19 2 19 C2.33 18.34 2.66 17.68 3 17 C3.33 20.63 3.66 24.26 4 28 C3.34 27.01 2.68 26.02 2 25 C-1.45508753 35.58889284 -4.76410313 46.07548635 -7 57 C-8.98 57.495 -8.98 57.495 -11 58 C-10.86004486 54.79138226 -10.71197743 51.58318712 -10.5625 48.375 C-10.50352539 47.01955078 -10.50352539 47.01955078 -10.44335938 45.63671875 C-10.22421542 41.01783854 -9.8991149 36.54846364 -9 32 C-10.134375 32.185625 -11.26875 32.37125 -12.4375 32.5625 C-13.613125 32.706875 -14.78875 32.85125 -16 33 C-16.33 32.67 -16.66 32.34 -17 32 C-16.93438025 28.96657808 -16.80611829 25.96443948 -16.625 22.9375 C-16.58117187 22.10283203 -16.53734375 21.26816406 -16.4921875 20.40820312 C-16.2020036 15.23728721 -15.87318378 10.10783976 -15 5 C-10.76827715 1.37280899 -5.49026195 0 0 0 Z " fill="#070707" transform="translate(240,230)"/>
<path d="M0 0 C4.29 0 8.58 0 13 0 C13.495 1.485 13.495 1.485 14 3 C15.32 2.67 16.64 2.34 18 2 C18 2.66 18 3.32 18 4 C17.01 4 16.02 4 15 4 C14.71125 4.7425 14.4225 5.485 14.125 6.25 C13 9 13 9 11.953125 10.87109375 C9.97845424 15.28173131 10.19807045 20.54864719 11.6875 25.1015625 C13.95123626 29.53471267 16.50406713 31.17703554 21 33 C28.36384202 33.86235578 35.54809085 33.90115437 42 30 C42.33 29.34 42.66 28.68 43 28 C42.34 28 41.68 28 41 28 C41.33 27.34 41.66 26.68 42 26 C42.66 26.33 43.32 26.66 44 27 C43.8125 29.3125 43.8125 29.3125 43 32 C36.73812135 36.61401585 30.49439669 36.42635632 23 36 C21.44667003 35.67669345 19.90109976 35.30902837 18.375 34.875 C17.26125 34.58625 16.1475 34.2975 15 34 C14.01 34.99 14.01 34.99 13 36 C7.36600402 36.79059028 2.53555948 37.13631402 -2.125 33.6875 C-3.43760339 31.80610181 -4.72749952 29.90875072 -6 28 C-6.598125 29.134375 -7.19625 30.26875 -7.8125 31.4375 C-9.625 34.875 -9.625 34.875 -13 36 C-14.43394477 36.09179741 -15.87171527 36.13066539 -17.30859375 36.1328125 C-18.55286133 36.13474609 -18.55286133 36.13474609 -19.82226562 36.13671875 C-20.68529297 36.13285156 -21.54832031 36.12898438 -22.4375 36.125 C-23.29666016 36.12886719 -24.15582031 36.13273437 -25.04101562 36.13671875 C-25.87181641 36.13542969 -26.70261719 36.13414062 -27.55859375 36.1328125 C-28.31454834 36.13168457 -29.07050293 36.13055664 -29.84936523 36.12939453 C-32 36 -32 36 -34.09008789 35.42919922 C-36.2047073 34.7812714 -36.2047073 34.7812714 -39 36 C-44.68895404 36.42104135 -49.67409783 36.24248512 -55 34 C-55.66 34.66 -56.32 35.32 -57 36 C-59.43744897 36.17488254 -61.7593608 36.23177405 -64.1953125 36.1953125 C-64.90275604 36.1924826 -65.61019958 36.18965271 -66.33908081 36.18673706 C-68.6012251 36.17553137 -70.86297515 36.15042679 -73.125 36.125 C-74.65754637 36.11497067 -76.19009894 36.10584474 -77.72265625 36.09765625 C-81.48192301 36.07559086 -85.24089464 36.04105896 -89 36 C-89.33 35.34 -89.66 34.68 -90 34 C-79.11 34 -68.22 34 -57 34 C-56.67 32.68 -56.34 31.36 -56 30 C-55.401875 30.495 -54.80375 30.99 -54.1875 31.5 C-48.83917996 34.01685649 -42.7154443 33.97353154 -37.15625 31.98046875 C-36.4446875 31.65691406 -35.733125 31.33335937 -35 31 C-35 31.66 -35 32.32 -35 33 C-31.45919329 33.20439826 -27.91990993 33.32797882 -24.375 33.4375 C-23.37597656 33.49615234 -22.37695312 33.55480469 -21.34765625 33.61523438 C-15.80178668 33.86559897 -15.80178668 33.86559897 -11.05566406 31.41064453 C-9.45786378 29.52058422 -9.45786378 29.52058422 -8.20556641 27.51586914 C-7.80772949 27.01563232 -7.40989258 26.51539551 -7 26 C-6.01 26 -5.02 26 -4 26 C-2.68 28.31 -1.36 30.62 0 33 C3.96 33 7.92 33 12 33 C11.19433594 31.96359375 10.38867188 30.9271875 9.55859375 29.859375 C8.51756215 28.49009019 7.47723387 27.12027047 6.4375 25.75 C5.90447266 25.06808594 5.37144531 24.38617188 4.82226562 23.68359375 C4.32275391 23.01972656 3.82324219 22.35585938 3.30859375 21.671875 C2.60947876 20.76066895 2.60947876 20.76066895 1.89624023 19.83105469 C1 18 1 18 1.24243164 15.94091797 C2.36762258 13.05813744 4.14079955 10.83844059 6 8.375 C8.73181827 4.83101471 8.73181827 4.83101471 11 1 C7.37 1 3.74 1 0 1 C0 0.67 0 0.34 0 0 Z M9.1171875 7.79296875 C8.37726563 8.58316406 7.63734375 9.37335938 6.875 10.1875 C6.12992187 10.96480469 5.38484375 11.74210938 4.6171875 12.54296875 C2.74107597 14.87579105 2.74107597 14.87579105 3.09765625 17.625 C4.33923817 20.89288662 6.42898256 22.69267665 9 25 C8.96519531 24.38253906 8.93039063 23.76507813 8.89453125 23.12890625 C8.69270274 16.81455703 9.62790596 11.84551745 12 6 C10.68737126 5.88506372 10.68737126 5.88506372 9.1171875 7.79296875 Z " fill="#FBFBFB" transform="translate(173,239)"/>
<path d="M0 0 C2 4 2 4 2 11 C-5.92 11 -13.84 11 -22 11 C-19.46559165 14.11351716 -19.46559165 14.11351716 -17.0625 14.328125 C-16.381875 14.30234375 -15.70125 14.2765625 -15 14.25 C-13.9790625 14.22679687 -13.9790625 14.22679687 -12.9375 14.203125 C-10.78385108 14.04772119 -10.78385108 14.04772119 -8 13 C-5.48301368 14.07254877 -3.33194455 15.54803452 -1 17 C-1.32956418 20.04846865 -1.5694499 21.58429646 -3.8125 23.75 C-9.8016563 27.17237503 -17.79398584 26.87424517 -24.38671875 25.50390625 C-29.07958604 23.92173956 -31.84451973 21.64852406 -35 18 C-34.95359375 18.56847656 -34.9071875 19.13695312 -34.859375 19.72265625 C-34.63052934 24.61831868 -34.88935383 28.32436918 -37.58984375 32.49609375 C-41.18890382 36.33442652 -47.16429815 38.75464809 -52.34765625 39.203125 C-58.97045578 39.3174755 -64.86174355 38.61866909 -71 36 C-71.66 35.34 -72.32 34.68 -73 34 C-72.625 31.875 -72.625 31.875 -72 30 C-71.67 31.32 -71.34 32.64 -71 34 C-61.31140338 36.98110665 -52.29976067 37.22716394 -43 33 C-41.515 32.505 -41.515 32.505 -40 32 C-38.83046584 29.57616923 -38.83046584 29.57616923 -38 27 C-37.67 26.34 -37.34 25.68 -37 25 C-36.77049681 22.795636 -36.58924067 20.58607827 -36.4375 18.375 C-36.35371094 17.18648438 -36.26992188 15.99796875 -36.18359375 14.7734375 C-36.09271484 13.40058594 -36.09271484 13.40058594 -36 12 C-35.505 12.99 -35.505 12.99 -35 14 C-34.34 14 -33.68 14 -33 14 C-32.401875 14.928125 -31.80375 15.85625 -31.1875 16.8125 C-28.88167594 20.17241506 -27.62351209 21.28199916 -24 23 C-16.55756944 23.89731432 -9.57821491 23.75897995 -3 20 C-3 19.34 -3 18.68 -3 18 C-7.61649608 15.02646744 -12.51166319 15.99577984 -17.78515625 16.22265625 C-21 16 -21 16 -22.93359375 14.68359375 C-24 13 -24 13 -24 10 C-16.08 10 -8.16 10 0 10 C0 6.7 0 3.4 0 0 Z " fill="#EDEDED" transform="translate(420,249)"/>
<path d="M0 0 C0.495 0.99 0.495 0.99 1 2 C1.99 2.33 2.98 2.66 4 3 C5.66666667 4.66666667 7.33333333 6.33333333 9 8 C13.99652074 9.66550691 19.05772683 9.63421165 24.0625 8 C25.0215625 7.505 25.0215625 7.505 26 7 C27 8 27 8 27.0625 11.0625 C27.041875 12.031875 27.02125 13.00125 27 14 C26.34 14 25.68 14 25 14 C25 12.68 25 11.36 25 10 C24.484375 10.33 23.96875 10.66 23.4375 11 C17.96076911 13.24686395 13.08987267 11.94997187 7.796875 9.94921875 C5.77210707 8.87961308 4.46347558 7.75707408 3 6 C3 5.34 3 4.68 3 4 C2.34 4 1.68 4 1 4 C1.309375 5.918125 1.309375 5.918125 1.625 7.875 C1.9765625 10.0546875 1.9765625 10.0546875 2 12 C0 14 0 14 -3.875 14.1875 C-6.74804694 14.1251554 -9.21943761 13.72088654 -12 13 C-12.99 13.33 -13.98 13.66 -15 14 C-21.79906792 14.76887682 -26.69332348 14.37314254 -32.34375 10.38671875 C-33.99452309 9.00458562 -35.50802822 7.55110481 -37 6 C-37.515625 6.763125 -38.03125 7.52625 -38.5625 8.3125 C-42.15963342 12.27857018 -45.44718374 13.72554405 -50.65234375 14.28515625 C-56.55986166 14.47153885 -60.78693663 13.78030047 -66 11 C-65.34 10.67 -64.68 10.34 -64 10 C-63.01 10.33 -62.02 10.66 -61 11 C-50.96372108 11.81587483 -50.96372108 11.81587483 -42 8 C-39.65674336 5.44860147 -39.65674336 5.44860147 -38 3 C-34.1736558 4.55888097 -31.85362504 7.07127956 -29 10 C-26.44080818 11.27959591 -24.54515972 11.16816536 -21.6875 11.1875 C-20.27017578 11.20876953 -20.27017578 11.20876953 -18.82421875 11.23046875 C-15.85593118 10.98824335 -13.69132835 10.24026607 -11 9 C-10.505 9.99 -10.505 9.99 -10 11 C-7.64400765 11.46751788 -7.64400765 11.46751788 -4.9375 11.625 C-3.308125 11.74875 -1.67875 11.8725 0 12 C0 8.04 0 4.08 0 0 Z " fill="#E9E9E9" transform="translate(346,261)"/>
<path d="M0 0 C4.62 0 9.24 0 14 0 C14.83055392 4.15276962 15.11674762 7.4322708 15.09765625 11.61328125 C15.09443359 12.86044922 15.09121094 14.10761719 15.08789062 15.39257812 C15.07951172 16.68615234 15.07113281 17.97972656 15.0625 19.3125 C15.05798828 20.62541016 15.05347656 21.93832031 15.04882812 23.29101562 C15.03705959 26.52736328 15.01912463 29.76368745 15 33 C20.28 33.33 25.56 33.66 31 34 C30.67 33.01 30.34 32.02 30 31 C29.46893319 24.73341159 30.1446967 20.1112803 34 15 C38.70828384 10.52436077 43.85663264 9.19504724 50.234375 8.84765625 C54.47122138 9.08104186 58.13359901 10.31023957 62 12 C61.01 12.33 60.02 12.66 59 13 C58.34 12.67 57.68 12.34 57 12 C48.33879206 11.08279782 48.33879206 11.08279782 40.375 13.8125 C38.97682931 15.10028879 37.59411332 16.40588668 36.25 17.75 C35.8375 18.1625 35.425 18.575 35 19 C34.34 19 33.68 19 33 19 C32.83044205 20.72888555 32.66448486 22.45812443 32.5 24.1875 C32.36078125 25.63189453 32.36078125 25.63189453 32.21875 27.10546875 C32.01875156 29.75187667 31.96120817 32.34760865 32 35 C27.93515534 36.02385185 24.4166384 35.973791 20.25 35.625 C19.10015625 35.53476562 17.9503125 35.44453125 16.765625 35.3515625 C14 35 14 35 13 34 C12.91156207 31.55169574 12.88471248 29.13179401 12.90234375 26.68359375 C12.9037587 25.95253922 12.90517365 25.22148468 12.90663147 24.46827698 C12.91224592 22.12464368 12.92480078 19.78110461 12.9375 17.4375 C12.94251314 15.85221492 12.94707637 14.26692834 12.95117188 12.68164062 C12.96222003 8.7877239 12.97949428 4.89387795 13 1 C9.04 1 5.08 1 1 1 C0.67 2.32 0.34 3.64 0 5 C0 3.35 0 1.7 0 0 Z " fill="#E1E1E1" transform="translate(242,229)"/>
<path d="M0 0 C0.33 0 0.66 0 1 0 C1.33 3.63 1.66 7.26 2 11 C1.34 10.01 0.68 9.02 0 8 C-3.45508753 18.58889284 -6.76410313 29.07548635 -9 40 C-10.98 40.495 -10.98 40.495 -13 41 C-12.85967508 37.81223289 -12.71173356 34.6248615 -12.5625 31.4375 C-12.52318359 30.54224609 -12.48386719 29.64699219 -12.44335938 28.72460938 C-12.20667217 23.7541781 -11.80178328 18.91176481 -11 14 C-10.34 14 -9.68 14 -9 14 C-9.33 19.28 -9.66 24.56 -10 30 C-9.41992188 28.00839844 -9.41992188 28.00839844 -8.828125 25.9765625 C-3.47674616 7.77155024 -3.47674616 7.77155024 0 0 Z " fill="#D3D3D3" transform="translate(242,247)"/>
<path d="M0 0 C4.29 0 8.58 0 13 0 C13.33 0.99 13.66 1.98 14 3 C15.32 2.67 16.64 2.34 18 2 C18 2.66 18 3.32 18 4 C17.01 4 16.02 4 15 4 C14.566875 5.11375 14.566875 5.11375 14.125 6.25 C13 9 13 9 11.94921875 10.8671875 C10.222476 14.74702923 10.5487205 18.84038023 11 23 C12.32985569 26.5047765 12.32985569 26.5047765 14 29 C11.7734375 29.328125 11.7734375 29.328125 9 29 C6.7265625 26.734375 6.7265625 26.734375 4.625 23.75 C3.91601562 22.77546875 3.20703125 21.8009375 2.4765625 20.796875 C1 18 1 18 1.0234375 15.9921875 C2.39026122 13.20386711 4.13024729 10.85242233 6 8.375 C8.73181827 4.83101471 8.73181827 4.83101471 11 1 C7.37 1 3.74 1 0 1 C0 0.67 0 0.34 0 0 Z M9.1171875 7.79296875 C8.37726563 8.58316406 7.63734375 9.37335938 6.875 10.1875 C6.12992188 10.96480469 5.38484375 11.74210938 4.6171875 12.54296875 C2.74107597 14.87579105 2.74107597 14.87579105 3.09765625 17.625 C4.33923817 20.89288662 6.42898256 22.69267665 9 25 C8.96519531 24.38253906 8.93039063 23.76507813 8.89453125 23.12890625 C8.69270274 16.81455703 9.62790596 11.84551745 12 6 C10.68737126 5.88506372 10.68737126 5.88506372 9.1171875 7.79296875 Z " fill="#D4D4D4" transform="translate(173,239)"/>
<path d="M0 0 C-0.62031591 6.57534861 -2.14897283 12.66692592 -4 19 C-3.34 19.33 -2.68 19.66 -2 20 C-3.32 20 -4.64 20 -6 20 C-5.194773 13.96079748 -4.10941445 7.99083802 -3 2 C-6.3 3.32 -9.6 4.64 -13 6 C-13.13277344 7.55332031 -13.26554688 9.10664063 -13.40234375 10.70703125 C-13.58053862 12.74220419 -13.75893447 14.77735955 -13.9375 16.8125 C-14.02451172 17.83666016 -14.11152344 18.86082031 -14.20117188 19.91601562 C-14.28818359 20.89892578 -14.37519531 21.88183594 -14.46484375 22.89453125 C-14.543396 23.80050049 -14.62194824 24.70646973 -14.70288086 25.63989258 C-15 28 -15 28 -16 31 C-13.69 30.34 -11.38 29.68 -9 29 C-9.33 29.99 -9.66 30.98 -10 32 C-11.9914056 32.38133299 -13.99279077 32.71325582 -16 33 C-16.33 32.67 -16.66 32.34 -17 32 C-16.93438025 28.96657808 -16.80611829 25.96443948 -16.625 22.9375 C-16.58117187 22.10283203 -16.53734375 21.26816406 -16.4921875 20.40820312 C-16.2020036 15.23728721 -15.87318378 10.10783976 -15 5 C-10.76827715 1.37280899 -5.49026195 0 0 0 Z " fill="#C9C9C9" transform="translate(240,230)"/>
<path d="M0 0 C-1.0621875 -0.08121094 -2.124375 -0.16242188 -3.21875 -0.24609375 C-11.22325952 -0.86475473 -11.22325952 -0.86475473 -18.66796875 1.48828125 C-20.69584861 3.33213219 -20.69584861 3.33213219 -22.44921875 5.30859375 C-24.36885184 7.40229936 -26.28535935 8.23650732 -29 9 C-29 5.7 -29 2.4 -29 -1 C-31.97 -1 -34.94 -1 -38 -1 C-38 -1.33 -38 -1.66 -38 -2 C-34.7 -2 -31.4 -2 -28 -2 C-27.34 0.31 -26.68 2.62 -26 5 C-25.525625 4.236875 -25.05125 3.47375 -24.5625 2.6875 C-18.2946548 -3.88609375 -7.58263285 -5.05508856 0 0 Z " fill="#A9A9A9" transform="translate(413,241)"/>
<path d="M0 0 C3.28573474 2.16166759 3.90007665 3.63361438 4.9375 7.4375 C5.00698608 11.39820668 4.43366566 12.93538398 2 16 C-0.84083641 17.42041821 -2.85477278 17.31452272 -6 17 C-8.30275556 15.1329009 -9.67823871 13.64352259 -11 11 C-11.35519903 7.16385043 -11.54724594 4.85370366 -9.4375 1.5625 C-6.05782196 -0.60396028 -3.94016013 -0.56288002 0 0 Z M-7.9375 3.625 C-9.31565201 6.70557508 -9.48746608 8.65737548 -9 12 C-7.52006844 14.56338689 -7.52006844 14.56338689 -5 16 C-1.86637282 16.08892339 -1.86637282 16.08892339 1 15 C3.45811625 11.31282562 3.31118164 9.35654296 3 5 C2.34 4.01 1.68 3.02 1 2 C-3.84838688 1.33992976 -3.84838688 1.33992976 -7.9375 3.625 Z " fill="#E8E8E8" transform="translate(295,248)"/>
<path d="M0 0 C1.32 0.66 2.64 1.32 4 2 C2.875 3.9375 2.875 3.9375 1 6 C-3.18710782 6.96176049 -7.20832369 7.1180556 -11.4921875 7.09765625 C-12.69101562 7.09443359 -13.88984375 7.09121094 -15.125 7.08789062 C-16.98125 7.07532227 -16.98125 7.07532227 -18.875 7.0625 C-20.13570312 7.05798828 -21.39640625 7.05347656 -22.6953125 7.04882812 C-25.79692386 7.0370796 -28.89843725 7.02065167 -32 7 C-32.33 6.34 -32.66 5.68 -33 5 C-22.11 5 -11.22 5 0 5 C0 3.35 0 1.7 0 0 Z " fill="#FDFDFD" transform="translate(276,268)"/>
<path d="M0 0 C0.66 0.66 1.32 1.32 2 2 C-0.05078125 2.22786458 -2.1015625 2.45572917 -4.15234375 2.68359375 C-6.01140229 2.81886614 -6.01140229 2.81886614 -7 4 C-7.07205511 5.68608966 -7.08386068 7.37500659 -7.0625 9.0625 C-7.05347656 9.98160156 -7.04445313 10.90070313 -7.03515625 11.84765625 C-7.02355469 12.55792969 -7.01195312 13.26820313 -7 14 C-1.94990405 14.93786082 -1.94990405 14.93786082 3 14 C3 14.66 3 15.32 3 16 C0.11138291 17.44430855 -1.79647701 17.37688506 -5 17 C-7.86972996 15.00366611 -9.65210765 13.52770117 -10.44921875 10.02734375 C-10.63473458 6.60489653 -10.24266544 4.37333144 -8.375 1.5 C-5.34860502 -0.41140736 -3.51843231 -0.45892595 0 0 Z " fill="#EBEBEB" transform="translate(330,248)"/>
<path d="M0 0 C0.66 0.66 1.32 1.32 2 2 C-2.455 2.495 -2.455 2.495 -7 3 C-7.33 5.31 -7.66 7.62 -8 10 C-4.33134759 12.44576827 -2.32799657 12.23607254 2 12 C2.66 11.67 3.32 11.34 4 11 C3.67 11.99 3.34 12.98 3 14 C-3.22772277 15.34323432 -3.22772277 15.34323432 -6.8125 13.75 C-9.47187197 11.62250243 -10.85024805 9.9733877 -11.375 6.5625 C-11 4 -11 4 -9.4375 1.6875 C-6.13692366 -0.59751439 -3.9296507 -0.43662786 0 0 Z " fill="#E1E1E1" transform="translate(368,248)"/>
<path d="M0 0 C5 3 5 3 5.8125 5.1875 C5.874375 5.785625 5.93625 6.38375 6 7 C5.34 6.67 4.68 6.34 4 6 C4 5.34 4 4.68 4 4 C3.01 4 2.02 4 1 4 C1.66 9.94 2.32 15.88 3 22 C3.66 21.67 4.32 21.34 5 21 C4.34 22.32 3.68 23.64 3 25 C2.01 25 1.02 25 0 25 C0 16.75 0 8.5 0 0 Z " fill="#F1F1F1" transform="translate(150,243)"/>
<path d="M0 0 C1.39412109 0.10054687 1.39412109 0.10054687 2.81640625 0.203125 C5.72570261 0.81013169 7.22227358 1.81102535 9.4375 3.75 C8.74527344 3.59144531 8.05304688 3.43289062 7.33984375 3.26953125 C0.77120087 2.09371765 -6.09720581 1.49572752 -12.125 4.5625 C-13.3315625 5.6453125 -13.3315625 5.6453125 -14.5625 6.75 C-15.738125 7.61625 -15.738125 7.61625 -16.9375 8.5 C-17.741875 9.11875 -17.741875 9.11875 -18.5625 9.75 C-18.5 7.5 -18.5 7.5 -17.5625 4.75 C-11.78896393 0.75293657 -7.05417086 -0.58866516 0 0 Z " fill="#A8A8A8" transform="translate(294.5625,238.25)"/>
<path d="M0 0 C3.8263442 1.55888097 6.14637496 4.07127956 9 7 C11.55919182 8.27959591 13.45484028 8.16816536 16.3125 8.1875 C17.72982422 8.20876953 17.72982422 8.20876953 19.17578125 8.23046875 C22.14406882 7.98824335 24.30867165 7.24026607 27 6 C27 6.66 27 7.32 27 8 C24.02621029 10.83482758 21.81064179 11.45359267 17.75 11.5 C10.65575787 11.31056763 6.67533293 8.34091632 1.5 3.8125 C0 2 0 2 0 0 Z " fill="#DADADA" transform="translate(308,264)"/>
<path d="M0 0 C1.32 0 2.64 0 4 0 C3.37968409 6.57534861 1.85102717 12.66692592 0 19 C0.66 19.33 1.32 19.66 2 20 C0.68 20 -0.64 20 -2 20 C-1.26309887 13.51527007 0.35318751 7.30760257 2 1 C1.34 0.67 0.68 0.34 0 0 Z " fill="#EAEAEA" transform="translate(236,230)"/>
<path d="M0 0 C0.99 0.33 1.98 0.66 3 1 C2.8125 3.3125 2.8125 3.3125 2 6 C-1.45020377 8.76016302 -4.63367763 9.65069421 -9 10 C-11.34214207 9.7355646 -13.68025766 9.41755362 -16 9 C-16 8.67 -16 8.34 -16 8 C-15.10796875 7.87882812 -14.2159375 7.75765625 -13.296875 7.6328125 C-11.54117188 7.38144531 -11.54117188 7.38144531 -9.75 7.125 C-8.58984375 6.96257812 -7.4296875 6.80015625 -6.234375 6.6328125 C-3.39922177 6.07810861 -1.4112754 5.55010561 1 4 C1.33 3.34 1.66 2.68 2 2 C1.34 2 0.68 2 0 2 C0 1.34 0 0.68 0 0 Z " fill="#D6D6D6" transform="translate(214,265)"/>
<path d="M0 0 C0.99 0 1.98 0 3 0 C3.99 1.98 4.98 3.96 6 6 C3 5 3 5 1 2 C-0.32 4.31 -1.64 6.62 -3 9 C-3.99 9 -4.98 9 -6 9 C-4.4705003 5.55862568 -2.54630448 2.7777867 0 0 Z " fill="#E9E9E9" transform="translate(166,265)"/>
<path d="M0 0 C0 3 0 3 -1.5625 4.625 C-6.89506209 7.63311195 -12.15872751 7.07288678 -18 6 C-18 5.67 -18 5.34 -18 5 C-16.67935547 4.83564453 -16.67935547 4.83564453 -15.33203125 4.66796875 C-13.58986328 4.43013672 -13.58986328 4.43013672 -11.8125 4.1875 C-10.66394531 4.03667969 -9.51539063 3.88585937 -8.33203125 3.73046875 C-4.98163973 2.99597495 -2.8070271 1.92950074 0 0 Z " fill="#D5D5D5" transform="translate(418,268)"/>
<path d="M0 0 C3.3 0 6.6 0 10 0 C12 6.625 12 6.625 12 10 C11.01 10.33 10.02 10.66 9 11 C9 7.7 9 4.4 9 1 C6.03 1 3.06 1 0 1 C0 0.67 0 0.34 0 0 Z " fill="#C1C1C1" transform="translate(375,239)"/>
<path d="M0 0 C1.65 1.65 3.3 3.3 5 5 C5.66 4.34 6.32 3.68 7 3 C8.32 5.31 9.64 7.62 11 10 C8.70703125 10.2421875 8.70703125 10.2421875 6 10 C4.19921875 8.3203125 4.19921875 8.3203125 2.6875 6.125 C1.91986328 5.04605469 1.91986328 5.04605469 1.13671875 3.9453125 C0 2 0 2 0 0 Z " fill="#E5E5E5" transform="translate(176,258)"/>
<path d="M0 0 C1.0326802 2.78823655 1.04509293 3.8677274 0.0625 6.75 C-0.288125 7.4925 -0.63875 8.235 -1 9 C-1.99 9 -2.98 9 -4 9 C-4 7.02 -4 5.04 -4 3 C-3.34 3 -2.68 3 -2 3 C-1.34 2.01 -0.68 1.02 0 0 Z " fill="#FBFBFB" transform="translate(233,279)"/>
<path d="M0 0 C-0.9075 0.598125 -1.815 1.19625 -2.75 1.8125 C-5.22901481 3.48106766 -7.63317911 5.17936855 -10 7 C-9.8125 4.6875 -9.8125 4.6875 -9 2 C-5.81738059 -0.58050222 -3.89040693 -1.5849806 0 0 Z " fill="#5E5E5E" transform="translate(286,241)"/>
<path d="M0 0 C0.33 0.66 0.66 1.32 1 2 C1.66 2.33 2.32 2.66 3 3 C-2.30723432 4.42705634 -6.53891111 5.4002792 -12 4 C-12 3.67 -12 3.34 -12 3 C-10.82630859 2.80083984 -10.82630859 2.80083984 -9.62890625 2.59765625 C-8.61699219 2.42105469 -7.60507813 2.24445313 -6.5625 2.0625 C-5.55316406 1.88847656 -4.54382813 1.71445312 -3.50390625 1.53515625 C-1.0712562 1.25248903 -1.0712562 1.25248903 0 0 Z " fill="#D4D4D4" transform="translate(137,270)"/>
<path d="M0 0 C0.66 0.33 1.32 0.66 2 1 C-0.36970497 4.21602818 -2.17078395 6.64124592 -6 8 C-6.99 8 -7.98 8 -9 8 C-9 7.34 -9 6.68 -9 6 C-8.071875 5.566875 -7.14375 5.13375 -6.1875 4.6875 C-3.52815927 3.27961373 -1.91894095 2.23876444 0 0 Z " fill="#EEEEEE" transform="translate(307,266)"/>
<path d="M0 0 C1.32 0.33 2.64 0.66 4 1 C0.535 3.97 0.535 3.97 -3 7 C-2.25 2.25 -2.25 2.25 0 0 Z " fill="#626262" transform="translate(391,241)"/>
<path d="M0 0 C0.33 1.32 0.66 2.64 1 4 C3.31 3.34 5.62 2.68 8 2 C7.67 2.99 7.34 3.98 7 5 C5.0085944 5.38133299 3.00720923 5.71325582 1 6 C0 5 0 5 -0.0625 2.4375 C-0.041875 1.633125 -0.02125 0.82875 0 0 Z " fill="#F0F0F0" transform="translate(223,257)"/>
<path d="M0 0 C1.31223496 3.93670488 0.24296256 6.12488144 -1 10 C-1.66 10 -2.32 10 -3 10 C-2.49287967 6.28111761 -1.88391785 3.26545761 0 0 Z " fill="#F4F4F4" transform="translate(238,261)"/>
<path d="M0 0 C0.33 0.66 0.66 1.32 1 2 C1.66 2 2.32 2 3 2 C3.33 2.99 3.66 3.98 4 5 C3.01 5.33 2.02 5.66 1 6 C0.67 6.99 0.34 7.98 0 9 C0 6.03 0 3.06 0 0 Z " fill="#C4C4C4" transform="translate(384,261)"/>
<path d="M0 0 C0.66 0.33 1.32 0.66 2 1 C1.54625 1.5775 1.0925 2.155 0.625 2.75 C-0.84113516 4.7800333 -1.94857784 6.73539843 -3 9 C-3.75 7.3125 -3.75 7.3125 -4 5 C-2.0625 2.25 -2.0625 2.25 0 0 Z " fill="#EDEDED" transform="translate(178,249)"/>
</svg>
