<?xml version="1.0" encoding="UTF-8"?>
<svg xmlns="http://www.w3.org/2000/svg" id="Layer_1" data-name="Layer 1" viewBox="0 0 24 24">
  <path d="m24,12.521c-.275,6.437-5.547,11.479-12,11.479-4.04,0-7.699-1.984-9.937-5.311-.033.099-.063.201-.063.311v4.5c0,.276-.224.5-.5.5s-.5-.224-.5-.5v-4.5c0-1.103.897-2,2-2h4.5c.276,0,.5.224.5.5s-.224.5-.5.5H3c-.062,0-.116.024-.174.035,2.045,3.109,5.432,4.965,9.174,4.965,5.916,0,10.748-4.622,11-10.521.012-.269.233-.479.5-.479.007,0,.014,0,.021,0,.275.012.49.245.479.521ZM12,1c3.742,0,7.13,1.856,9.174,4.965-.059.011-.113.035-.174.035h-4.5c-.276,0-.5.224-.5.5s.224.5.5.5h4.5c1.103,0,2-.897,2-2V.5c0-.276-.224-.5-.5-.5s-.5.224-.5.5v4.5c0,.11-.03.212-.063.311C19.699,1.984,16.04,0,12,0,5.547,0,.275,5.042,0,11.479c-.012.276.203.509.479.521.008,0,.015,0,.021,0,.267,0,.488-.21.5-.479C1.252,5.622,6.084,1,12,1Zm-3.177,19.423c1.014.383,2.083.577,3.177.577,4.963,0,9-4.038,9-9,0-.902-.133-1.792-.396-2.647-.08-.264-.356-.413-.625-.331-.264.082-.412.361-.33.625.233.759.352,1.551.352,2.353,0,4.411-3.589,8-8,8-.973,0-1.923-.172-2.823-.512-.261-.098-.548.033-.645.291-.098.258.033.547.291.645Zm3.177-16.423c.973,0,1.923.172,2.823.512.26.098.548-.033.645-.291.098-.258-.033-.547-.291-.645-1.014-.383-2.083-.577-3.177-.577C7.037,3,3,7.038,3,12c0,.902.133,1.792.396,2.647.065.215.264.353.478.353.049,0,.098-.007.147-.022.264-.082.412-.361.33-.625-.233-.759-.352-1.551-.352-2.353,0-4.411,3.589-8,8-8Zm-.842,5h1.684c.576,0,1.158.309,1.158,1,0,.276.224.5.5.5s.5-.224.5-.5c0-1.159-.907-2-2.158-2h-.342v-.5c0-.276-.224-.5-.5-.5s-.5.224-.5.5v.5h-.342c-1.19,0-2.158.968-2.158,2.158,0,1.059.759,1.954,1.795,2.127l2.237.415c.561.094.968.574.968,1.142,0,.639-.52,1.158-1.158,1.158h-1.684c-.576,0-1.158-.309-1.158-1,0-.276-.224-.5-.5-.5s-.5.224-.5.5c0,1.159.907,2,2.158,2h.342v.5c0,.276.224.5.5.5s.5-.224.5-.5v-.5h.342c1.19,0,2.158-.968,2.158-2.158,0-1.059-.759-1.954-1.795-2.127l-2.237-.415c-.561-.094-.968-.574-.968-1.142,0-.639.52-1.158,1.158-1.158Z"/>
</svg>
